# xmcd CD database file
#
# Track frame offsets:
#	150
#	17284
#	32402
#	46628
#	63364
#	81542
#	100304
#	111970
#	124323
#	142989
#	161067
#	174978
#	189692
#	205354
#	219353
#	235213
#	248373
#	266429
#	282419
#	300203
#
# Disc length: 4196 seconds
#
# Revision: 0
# Processed by: cddbd v1.5.2PL0 Copyright (c) Steve Scherf et al.
# Submitted via: CDex 1.51
#
DISCID=0a106214
DTITLE=The Oak Ridge Boys - Mixed Tape
DYEAR=2005
DGENRE=Country
TTITLE0=Elvira
TTITLE1=Ozark Mountain Jubilee
TTITLE2=Love Song
TTITLE3=Fancy Free
TTITLE4=Everyday
TTITLE5=Beautiful You
TTITLE6=Thank God For Kids
TTITLE7=American Made
TTITLE8=Make My Life With You
TTITLE9=I Guess It Never Hurts To Hurt Sometimes
TTITLE10=Gonna Take A Lot Of River
TTITLE11=True Heart
TTITLE12=Little Things
TTITLE13=This Crazy Love
TTITLE14=Come On In (You Did The Best You Could Do)
TTITLE15=Bobbie Sue
TTITLE16=It Takes A Little Rain (To Make Love Grow)
TTITLE17=Touch A Hand, Make A Friend
TTITLE18=Bridges And Walls
TTITLE19=Take Pride In America
EXTD=YEAR: 2005
EXTT0=
EXTT1=
EXTT2=
EXTT3=
EXTT4=
EXTT5=
EXTT6=
EXTT7=
EXTT8=
EXTT9=
EXTT10=
EXTT11=
EXTT12=
EXTT13=
EXTT14=
EXTT15=
EXTT16=
EXTT17=
EXTT18=
EXTT19=
PLAYORDER=
